<svg xmlns="http://www.w3.org/2000/svg" viewBox="0 0 1200 630" width="1200" height="630">
  <defs>
    <radialGradient id="g" cx="80%" cy="12%" r="70%"><stop offset="0" stop-color="#38BDF8" stop-opacity=".30"/><stop offset="60%" stop-color="#38BDF8" stop-opacity="0"/></radialGradient>
    <linearGradient id="steel" x1="0" y1="0" x2="0" y2="1"><stop offset="0" stop-color="#AEC0D8"/><stop offset="1" stop-color="#5B6F92"/></linearGradient>
    <linearGradient id="cyanG" x1="0" y1="0" x2="0" y2="1"><stop offset="0" stop-color="#7DD3FC"/><stop offset="1" stop-color="#38BDF8"/></linearGradient>
    <linearGradient id="spark" x1="0" y1="0" x2="0" y2="1"><stop offset="0" stop-color="#FCD34D"/><stop offset="1" stop-color="#FBBF24"/></linearGradient>
  </defs>
  <rect width="1200" height="630" fill="#0A1326"/>
  <rect width="1200" height="630" fill="url(#g)"/>
  <g font-family="'Helvetica Neue',Arial,sans-serif">
    <text x="90" y="150" fill="#38BDF8" font-size="22" font-weight="700" letter-spacing="6">POWERING AMERICAN INDEPENDENCE</text>
    <text x="86" y="300" fill="#FFFFFF" font-size="92" font-weight="800" letter-spacing="-2">The American</text>
    <text x="86" y="400" fill="#38BDF8" font-size="92" font-weight="800" letter-spacing="-2">Energy</text>
    <text x="90" y="470" fill="#A9BBD2" font-size="30" font-weight="500">Solar · Nuclear · Gas · Wind · Hydro · Geothermal · Storage</text>
    <text x="90" y="560" fill="#6E83A1" font-size="22" font-weight="500">Endicott, New York · 100% American-First energy supply chain</text>
  </g>
  <g transform="translate(946 206) scale(0.72) translate(-142 -94)">
    <g transform="translate(51,0) skewX(-9)">
      <rect x="150" y="264" width="34" height="96" rx="17" fill="url(#steel)"/>
      <rect x="194" y="226" width="34" height="134" rx="17" fill="url(#steel)"/>
      <rect x="238" y="188" width="34" height="172" rx="17" fill="url(#steel)"/>
      <rect x="282" y="146" width="34" height="214" rx="17" fill="url(#cyanG)"/>
    </g>
    <path d="M330 100 Q335 127 360 130 Q335 133 330 160 Q325 133 300 130 Q325 127 330 100 Z" fill="url(#spark)"/>
  </g>
</svg>
