<svg xmlns="http://www.w3.org/2000/svg" viewBox="0 0 720 128" role="img" aria-label="The American Energy">
  <defs>
    <linearGradient id="steelL" x1="0" y1="0" x2="0" y2="1"><stop offset="0" stop-color="#8295B3"/><stop offset="1" stop-color="#42536B"/></linearGradient>
    <linearGradient id="skyL" x1="0" y1="0" x2="0" y2="1"><stop offset="0" stop-color="#0EA5E9"/><stop offset="1" stop-color="#0369A1"/></linearGradient>
    <linearGradient id="sparkL" x1="0" y1="0" x2="0" y2="1"><stop offset="0" stop-color="#F59E0B"/><stop offset="1" stop-color="#D97706"/></linearGradient>
    <style>@import url('https://fonts.googleapis.com/css2?family=Sora:wght@800&amp;display=swap');text{font-family:'Sora','Helvetica Neue',Arial,sans-serif;font-weight:800}</style>
  </defs>
  <g transform="translate(6 12) scale(0.416) translate(-135 -108)">
    <rect x="135" y="258" width="34" height="100" rx="17" fill="url(#steelL)"/>
    <rect x="183" y="220" width="34" height="138" rx="17" fill="url(#steelL)"/>
    <rect x="231" y="182" width="34" height="176" rx="17" fill="url(#steelL)"/>
    <path d="M281 356 L293 215 C297 178 315 160 333 151 C324 180 322 205 319 232 L313 356 Q297 366 281 356 Z" fill="url(#skyL)"/>
    <path d="M344 108 Q349 135 376 140 Q349 145 344 172 Q339 145 312 140 Q339 135 344 108 Z" fill="url(#sparkL)"/>
  </g>
  <text x="128" y="82" font-size="50" letter-spacing="-1"><tspan fill="#0A1326">The American </tspan><tspan fill="#0369A1">Energy</tspan></text>
</svg>
