<svg xmlns="http://www.w3.org/2000/svg" viewBox="0 0 720 128" role="img" aria-label="The American Energy">
  <defs>
    <linearGradient id="steel" x1="0" y1="0" x2="0" y2="1"><stop offset="0" stop-color="#AEC0D8"/><stop offset="1" stop-color="#5B6F92"/></linearGradient>
    <linearGradient id="cyanG" x1="0" y1="0" x2="0" y2="1"><stop offset="0" stop-color="#7DD3FC"/><stop offset="1" stop-color="#38BDF8"/></linearGradient>
    <linearGradient id="spark" x1="0" y1="0" x2="0" y2="1"><stop offset="0" stop-color="#FCD34D"/><stop offset="1" stop-color="#FBBF24"/></linearGradient>
    <style>@import url('https://fonts.googleapis.com/css2?family=Sora:wght@800&amp;display=swap');text{font-family:'Sora','Helvetica Neue',Arial,sans-serif;font-weight:800}</style>
  </defs>
  <g transform="translate(2 12) scale(0.356) translate(-146 -62)">
    <g transform="translate(51,0) skewX(-9)"><rect x="150" y="264" width="34" height="96" rx="17" fill="url(#steel)"/><rect x="194" y="226" width="34" height="134" rx="17" fill="url(#steel)"/><rect x="238" y="188" width="34" height="172" rx="17" fill="url(#steel)"/><rect x="282" y="146" width="34" height="214" rx="17" fill="url(#cyanG)"/></g>
    <path d="M330 70 Q335 99 364 104 Q335 109 330 138 Q325 109 296 104 Q325 99 330 70 Z" fill="url(#spark)"/>
  </g>
  <text x="112" y="82" font-size="50" letter-spacing="-1"><tspan fill="#EAF2FB">The American </tspan><tspan fill="#38BDF8">Energy</tspan></text>
</svg>
