<svg xmlns="http://www.w3.org/2000/svg" viewBox="0 0 512 512" role="img" aria-label="The American Energy growth mark">
  <defs>
    <linearGradient id="tile" x1="0" y1="0" x2="0" y2="1">
      <stop offset="0" stop-color="#17284A"/><stop offset="1" stop-color="#070E1F"/>
    </linearGradient>
    <radialGradient id="glow" cx="80%" cy="14%" r="70%">
      <stop offset="0" stop-color="#38BDF8" stop-opacity=".18"/><stop offset="60%" stop-color="#38BDF8" stop-opacity="0"/>
    </radialGradient>
    <linearGradient id="steel" x1="0" y1="0" x2="0" y2="1">
      <stop offset="0" stop-color="#AEC0D8"/><stop offset="1" stop-color="#5B6F92"/>
    </linearGradient>
    <linearGradient id="cyanG" x1="0" y1="0" x2="0" y2="1">
      <stop offset="0" stop-color="#7DD3FC"/><stop offset="1" stop-color="#38BDF8"/>
    </linearGradient>
    <linearGradient id="spark" x1="0" y1="0" x2="0" y2="1">
      <stop offset="0" stop-color="#FCD34D"/><stop offset="1" stop-color="#FBBF24"/>
    </linearGradient>
  </defs>

  <!-- tile -->
  <rect width="512" height="512" rx="115" fill="url(#tile)"/>
  <rect width="512" height="512" rx="115" fill="url(#glow)"/>
  <rect x="1.5" y="1.5" width="509" height="509" rx="113.5" fill="none" stroke="#ffffff" stroke-opacity=".06" stroke-width="3"/>

  <!-- ascending steel bars -->
  <rect x="135" y="258" width="34" height="100" rx="17" fill="url(#steel)"/>
  <rect x="183" y="220" width="34" height="138" rx="17" fill="url(#steel)"/>
  <rect x="231" y="182" width="34" height="176" rx="17" fill="url(#steel)"/>

  <!-- rising cyan streak -->
  <path d="M281 356 L293 215 C297 178 315 160 333 151 C324 180 322 205 319 232 L313 356 Q297 366 281 356 Z" fill="url(#cyanG)"/>

  <!-- amber sparkle -->
  <path d="M344 108 Q349 135 376 140 Q349 145 344 172 Q339 145 312 140 Q339 135 344 108 Z" fill="url(#spark)"/>
</svg>
