<svg xmlns="http://www.w3.org/2000/svg" viewBox="0 0 720 128" role="img" aria-label="The American Energy">
  <defs>
    <linearGradient id="steelL" x1="0" y1="0" x2="0" y2="1"><stop offset="0" stop-color="#8295B3"/><stop offset="1" stop-color="#42536B"/></linearGradient>
    <linearGradient id="skyL" x1="0" y1="0" x2="0" y2="1"><stop offset="0" stop-color="#0EA5E9"/><stop offset="1" stop-color="#0369A1"/></linearGradient>
    <linearGradient id="sparkL" x1="0" y1="0" x2="0" y2="1"><stop offset="0" stop-color="#F59E0B"/><stop offset="1" stop-color="#D97706"/></linearGradient>
    <style>@import url('https://fonts.googleapis.com/css2?family=Sora:wght@800&amp;display=swap');text{font-family:'Sora','Helvetica Neue',Arial,sans-serif;font-weight:800}</style>
  </defs>
  <g transform="translate(4 12) scale(0.38) translate(-142 -94)">
    <g transform="translate(51,0) skewX(-9)">
      <rect x="150" y="264" width="34" height="96" rx="17" fill="url(#steelL)"/>
      <rect x="194" y="226" width="34" height="134" rx="17" fill="url(#steelL)"/>
      <rect x="238" y="188" width="34" height="172" rx="17" fill="url(#steelL)"/>
      <rect x="282" y="146" width="34" height="214" rx="17" fill="url(#skyL)"/>
    </g>
    <path d="M330 100 Q335 127 360 130 Q335 133 330 160 Q325 133 300 130 Q325 127 330 100 Z" fill="url(#sparkL)"/>
  </g>
  <text x="120" y="82" font-size="50" letter-spacing="-1"><tspan fill="#0A1326">The American </tspan><tspan fill="#0369A1">Energy</tspan></text>
</svg>
